# xmcd
#
# Track frame offsets:
#	150
#	15277
#	29920
#	45992
#	62370
#	102115
#	117240
#	134152
#	147755
#	164022
#	178515
#	189117
#	202717
#	219572
#	233577
#	248652
#	264442
#	277345
#	293792
#	306480
#
# Disc length: 4301 seconds
#
# Revision: 1
# Processed by: cddbd v1.5.1PL0 Copyright (c) Steve Scherf et al.
# Submitted via: CDex 1.50Beta5
#
DISCID=1f10cb14
DTITLE=Various Artist - The Best Of Samba
DYEAR=2002
DGENRE=Latin
TTITLE0=Candeia E Ivone Lara/Sou Mais O Samba（俺はサンバ）
TTITLE1=Cartola/Verde Que Te Quero Rosa（愛するマンゲイラ）
TTITLE2=Cortola and Nelson Cavaquinho/Pranto De Poeta（詩人の涙）
TTITLE3=Alcione/Dona Zica E Dona Neuma
TTITLE4=Marcal/メドレー：Leviana〜O Meu Amor Tem Preco（愛は憎しみに）〜Contentamento（喜びよ永遠に）
TTITLE5=Joao Bosco/O Bebado E A Equilibrista（酔っ払いと綱渡り芸人）
TTITLE6=Joao Nogueira/Curbe Do Samba
TTITLE7=Paulinho Da Viola/Peregurino
TTITLE8=Carmen Miranda and Mario Reis/Alo…Alo ?
TTITLE9=Orlando Silva/Sertaneja
TTITLE10=Guilherme De Brito/Gotas De Luar（月の雫）
TTITLE11=Nelson Goncalves/Preciso Aprender A Ser So（わかって欲しかったのに）
TTITLE12=Maria Creuza/A Timidez Me Devora（臆病な私）
TTITLE13=Nelson Cavaquinho/Amor Perfeito（完全なる愛）
TTITLE14=Beth Carvalho/Antes Ele Do Que Eu（去りし愛へのサンバ）
TTITLE15=Os Originais Do Samba/E Preciso Cantar（もっと愛を）
TTITLE16=Martinho Da Vila/O Caveira
TTITLE17=Paulinho Da Viola and Elton Medeiros/Ame
TTITLE18=Antonio Carlos and Jocafi/Dona Flor E Seus Dois Maridos（ドナ・フロールと二人の亭主）
TTITLE19=Beth Carvalho/Agoniza Mas Nhao Morre（サンバは死なず）
EXTD=
EXTT0=
EXTT1=
EXTT2=
EXTT3=
EXTT4=
EXTT5=
EXTT6=
EXTT7=
EXTT8=
EXTT9=
EXTT10=
EXTT11=
EXTT12=
EXTT13=
EXTT14=
EXTT15=
EXTT16=
EXTT17=
EXTT18=
EXTT19=
PLAYORDER=
